solid OpenSCAD_Model
  facet normal -1.000000 0.000000 0.000000
    outer loop
      vertex -5.000000 -6.045456 3.017868
      vertex -5.000000 -4.010099 0.000000
      vertex -5.000000 -7.954544 3.017868
    endloop
  endfacet
  facet normal -1.000000 0.000000 -0.000000
    outer loop
      vertex -5.000000 -8.720029 6.371678
      vertex -5.000000 -12.500000 10.000000
      vertex -5.000000 -4.010099 10.000000
    endloop
  endfacet
  facet normal -1.000000 0.000000 -0.000000
    outer loop
      vertex -5.000000 -7.000000 7.200000
      vertex -5.000000 -8.720029 6.371678
      vertex -5.000000 -4.010099 10.000000
    endloop
  endfacet
  facet normal -1.000000 0.000000 -0.000000
    outer loop
      vertex -5.000000 -12.500000 0.000000
      vertex -5.000000 -12.500000 10.000000
      vertex -5.000000 -9.144841 4.510454
    endloop
  endfacet
  facet normal -1.000000 0.000000 0.000000
    outer loop
      vertex -5.000000 -12.500000 0.000000
      vertex -5.000000 -9.144841 4.510454
      vertex -5.000000 -7.954544 3.017868
    endloop
  endfacet
  facet normal -1.000000 -0.000000 0.000000
    outer loop
      vertex -5.000000 -12.500000 0.000000
      vertex -5.000000 -7.954544 3.017868
      vertex -5.000000 -4.010099 0.000000
    endloop
  endfacet
  facet normal -1.000000 -0.000000 0.000000
    outer loop
      vertex -5.000000 -5.279971 6.371678
      vertex -5.000000 -4.010099 10.000000
      vertex -5.000000 -4.855159 4.510454
    endloop
  endfacet
  facet normal -1.000000 0.000000 0.000000
    outer loop
      vertex -5.000000 -4.010099 0.000000
      vertex -5.000000 -6.045456 3.017868
      vertex -5.000000 -4.855159 4.510454
    endloop
  endfacet
  facet normal -1.000000 0.000000 0.000000
    outer loop
      vertex -5.000000 -4.010099 0.000000
      vertex -5.000000 -4.855159 4.510454
      vertex -5.000000 -4.010099 10.000000
    endloop
  endfacet
  facet normal -1.000000 0.000000 -0.000000
    outer loop
      vertex -5.000000 -5.279971 6.371678
      vertex -5.000000 -7.000000 7.200000
      vertex -5.000000 -4.010099 10.000000
    endloop
  endfacet
  facet normal -1.000000 0.000000 -0.000000
    outer loop
      vertex -5.000000 -9.144841 4.510454
      vertex -5.000000 -12.500000 10.000000
      vertex -5.000000 -8.720029 6.371678
    endloop
  endfacet
  facet normal 0.000000 -1.000000 0.000000
    outer loop
      vertex -5.000000 -12.500000 10.000000
      vertex -5.000000 -12.500000 0.000000
      vertex 5.000000 -12.500000 0.000000
    endloop
  endfacet
  facet normal 0.000000 -1.000000 0.000000
    outer loop
      vertex 5.000000 -12.500000 10.000000
      vertex -5.000000 -12.500000 10.000000
      vertex 5.000000 -12.500000 0.000000
    endloop
  endfacet
  facet normal -0.000000 -0.000000 -1.000000
    outer loop
      vertex -5.000000 -12.500000 0.000000
      vertex -5.000000 -4.010099 0.000000
      vertex 5.000000 -12.500000 0.000000
    endloop
  endfacet
  facet normal 0.000000 0.000000 -1.000000
    outer loop
      vertex 5.000000 -12.500000 0.000000
      vertex -5.000000 -4.010099 0.000000
      vertex -3.546120 -3.833567 0.000000
    endloop
  endfacet
  facet normal 0.000000 0.000000 -1.000000
    outer loop
      vertex 5.000000 -12.500000 0.000000
      vertex -3.546120 -3.833567 0.000000
      vertex -1.931106 -2.718803 0.000000
    endloop
  endfacet
  facet normal -0.000000 0.000000 -1.000000
    outer loop
      vertex -1.931106 -2.718803 0.000000
      vertex -1.019139 -0.981194 0.000000
      vertex 5.000000 -12.500000 0.000000
    endloop
  endfacet
  facet normal -0.000000 -0.000000 -1.000000
    outer loop
      vertex -1.019139 -0.981194 0.000000
      vertex -1.019139 0.981194 0.000000
      vertex 5.000000 -12.500000 0.000000
    endloop
  endfacet
  facet normal -0.000000 -0.000000 -1.000000
    outer loop
      vertex -1.019139 0.981194 0.000000
      vertex -5.000000 12.500000 0.000000
      vertex 5.000000 -12.500000 0.000000
    endloop
  endfacet
  facet normal -0.000000 -0.000000 -1.000000
    outer loop
      vertex -1.931106 2.718803 0.000000
      vertex -5.000000 12.500000 0.000000
      vertex -1.019139 0.981194 0.000000
    endloop
  endfacet
  facet normal 0.000000 0.000000 -1.000000
    outer loop
      vertex -3.546120 3.833567 0.000000
      vertex -5.000000 4.010099 0.000000
      vertex -5.000000 12.500000 0.000000
    endloop
  endfacet
  facet normal -0.000000 -0.000000 -1.000000
    outer loop
      vertex -3.546120 3.833567 0.000000
      vertex -5.000000 12.500000 0.000000
      vertex -1.931106 2.718803 0.000000
    endloop
  endfacet
  facet normal 0.000000 0.000000 -1.000000
    outer loop
      vertex 5.000000 -12.500000 0.000000
      vertex -5.000000 12.500000 0.000000
      vertex 5.000000 12.500000 0.000000
    endloop
  endfacet
  facet normal -0.120536 0.992709 0.000000
    outer loop
      vertex -3.546120 -3.833567 10.000000
      vertex -3.546120 -3.833567 0.000000
      vertex -5.000000 -4.010099 10.000000
    endloop
  endfacet
  facet normal -0.120536 0.992709 0.000000
    outer loop
      vertex -5.000000 -4.010099 10.000000
      vertex -3.546120 -3.833567 0.000000
      vertex -5.000000 -4.010099 0.000000
    endloop
  endfacet
  facet normal 0.000000 -0.000000 1.000000
    outer loop
      vertex -5.000000 -4.010099 10.000000
      vertex -5.000000 -12.500000 10.000000
      vertex 5.000000 -12.500000 10.000000
    endloop
  endfacet
  facet normal 0.000000 -0.000000 1.000000
    outer loop
      vertex -3.546120 -3.833567 10.000000
      vertex -5.000000 -4.010099 10.000000
      vertex 5.000000 -12.500000 10.000000
    endloop
  endfacet
  facet normal 0.000000 -0.000000 1.000000
    outer loop
      vertex -5.000000 12.500000 10.000000
      vertex -5.000000 4.010099 10.000000
      vertex 5.000000 12.500000 10.000000
    endloop
  endfacet
  facet normal 0.000000 0.000000 1.000000
    outer loop
      vertex -5.000000 4.010099 10.000000
      vertex -3.546120 3.833567 10.000000
      vertex 5.000000 12.500000 10.000000
    endloop
  endfacet
  facet normal 0.000000 0.000000 1.000000
    outer loop
      vertex -3.546120 3.833567 10.000000
      vertex -1.931106 2.718803 10.000000
      vertex 5.000000 12.500000 10.000000
    endloop
  endfacet
  facet normal 0.000000 0.000000 1.000000
    outer loop
      vertex 5.000000 12.500000 10.000000
      vertex -1.019139 0.981194 10.000000
      vertex 5.000000 -12.500000 10.000000
    endloop
  endfacet
  facet normal 0.000000 -0.000000 1.000000
    outer loop
      vertex -1.019139 0.981194 10.000000
      vertex -1.019139 -0.981194 10.000000
      vertex 5.000000 -12.500000 10.000000
    endloop
  endfacet
  facet normal 0.000000 -0.000000 1.000000
    outer loop
      vertex -1.019139 -0.981194 10.000000
      vertex -1.931106 -2.718803 10.000000
      vertex 5.000000 -12.500000 10.000000
    endloop
  endfacet
  facet normal 0.000000 -0.000000 1.000000
    outer loop
      vertex -1.931106 -2.718803 10.000000
      vertex -3.546120 -3.833567 10.000000
      vertex 5.000000 -12.500000 10.000000
    endloop
  endfacet
  facet normal 0.000000 0.000000 1.000000
    outer loop
      vertex -1.931106 2.718803 10.000000
      vertex -1.019139 0.981194 10.000000
      vertex 5.000000 12.500000 10.000000
    endloop
  endfacet
  facet normal 0.000000 0.974928 -0.222521
    outer loop
      vertex 5.000000 -8.720029 6.371678
      vertex 5.000000 -9.144841 4.510454
      vertex -5.000000 -8.720029 6.371678
    endloop
  endfacet
  facet normal 0.000000 0.974928 -0.222521
    outer loop
      vertex -5.000000 -8.720029 6.371678
      vertex 5.000000 -9.144841 4.510454
      vertex -5.000000 -9.144841 4.510454
    endloop
  endfacet
  facet normal 0.000000 0.433884 -0.900969
    outer loop
      vertex 5.000000 -7.000000 7.200000
      vertex 5.000000 -8.720029 6.371678
      vertex -5.000000 -7.000000 7.200000
    endloop
  endfacet
  facet normal 0.000000 0.433884 -0.900969
    outer loop
      vertex -5.000000 -7.000000 7.200000
      vertex 5.000000 -8.720029 6.371678
      vertex -5.000000 -8.720029 6.371678
    endloop
  endfacet
  facet normal 0.000000 -0.433884 -0.900969
    outer loop
      vertex 5.000000 -5.279971 6.371678
      vertex 5.000000 -7.000000 7.200000
      vertex -5.000000 -5.279971 6.371678
    endloop
  endfacet
  facet normal 0.000000 -0.433884 -0.900969
    outer loop
      vertex -5.000000 -5.279971 6.371678
      vertex 5.000000 -7.000000 7.200000
      vertex -5.000000 -7.000000 7.200000
    endloop
  endfacet
  facet normal 0.000000 -0.974928 -0.222521
    outer loop
      vertex -5.000000 -4.855159 4.510454
      vertex 5.000000 -4.855159 4.510454
      vertex 5.000000 -5.279971 6.371678
    endloop
  endfacet
  facet normal 0.000000 -0.974928 -0.222521
    outer loop
      vertex -5.000000 -5.279971 6.371678
      vertex -5.000000 -4.855159 4.510454
      vertex 5.000000 -5.279971 6.371678
    endloop
  endfacet
  facet normal -0.000000 -0.781832 0.623490
    outer loop
      vertex 5.000000 -6.045456 3.017868
      vertex 5.000000 -4.855159 4.510454
      vertex -5.000000 -4.855159 4.510454
    endloop
  endfacet
  facet normal -0.000000 -0.781832 0.623490
    outer loop
      vertex -5.000000 -6.045456 3.017868
      vertex 5.000000 -6.045456 3.017868
      vertex -5.000000 -4.855159 4.510454
    endloop
  endfacet
  facet normal -0.000000 0.000000 1.000000
    outer loop
      vertex 5.000000 -7.954544 3.017868
      vertex 5.000000 -6.045456 3.017868
      vertex -5.000000 -6.045456 3.017868
    endloop
  endfacet
  facet normal -0.000000 0.000000 1.000000
    outer loop
      vertex -5.000000 -7.954544 3.017868
      vertex 5.000000 -7.954544 3.017868
      vertex -5.000000 -6.045456 3.017868
    endloop
  endfacet
  facet normal -0.000000 0.781832 0.623490
    outer loop
      vertex 5.000000 -7.954544 3.017868
      vertex -5.000000 -7.954544 3.017868
      vertex 5.000000 -9.144841 4.510454
    endloop
  endfacet
  facet normal -0.000000 0.781832 0.623490
    outer loop
      vertex 5.000000 -9.144841 4.510454
      vertex -5.000000 -7.954544 3.017868
      vertex -5.000000 -9.144841 4.510454
    endloop
  endfacet
  facet normal 1.000000 0.000000 -0.000000
    outer loop
      vertex 5.000000 -6.045456 3.017868
      vertex 5.000000 -12.500000 0.000000
      vertex 5.000000 12.500000 0.000000
    endloop
  endfacet
  facet normal 1.000000 -0.000000 -0.000000
    outer loop
      vertex 5.000000 6.045456 3.017868
      vertex 5.000000 -12.500000 10.000000
      vertex 5.000000 12.500000 0.000000
    endloop
  endfacet
  facet normal 1.000000 0.000000 0.000000
    outer loop
      vertex 5.000000 7.000000 7.200000
      vertex 5.000000 8.720029 6.371678
      vertex 5.000000 12.500000 10.000000
    endloop
  endfacet
  facet normal 1.000000 0.000000 -0.000000
    outer loop
      vertex 5.000000 -12.500000 10.000000
      vertex 5.000000 -12.500000 0.000000
      vertex 5.000000 -9.144841 4.510454
    endloop
  endfacet
  facet normal 1.000000 0.000000 -0.000000
    outer loop
      vertex 5.000000 -4.855159 4.510454
      vertex 5.000000 -6.045456 3.017868
      vertex 5.000000 12.500000 0.000000
    endloop
  endfacet
  facet normal 1.000000 0.000000 0.000000
    outer loop
      vertex 5.000000 -12.500000 10.000000
      vertex 5.000000 -9.144841 4.510454
      vertex 5.000000 -8.720029 6.371678
    endloop
  endfacet
  facet normal 1.000000 0.000000 0.000000
    outer loop
      vertex 5.000000 -12.500000 10.000000
      vertex 5.000000 -7.000000 7.200000
      vertex 5.000000 12.500000 0.000000
    endloop
  endfacet
  facet normal 1.000000 0.000000 0.000000
    outer loop
      vertex 5.000000 -12.500000 10.000000
      vertex 5.000000 -8.720029 6.371678
      vertex 5.000000 -7.000000 7.200000
    endloop
  endfacet
  facet normal 1.000000 0.000000 0.000000
    outer loop
      vertex 5.000000 -7.000000 7.200000
      vertex 5.000000 -5.279971 6.371678
      vertex 5.000000 12.500000 0.000000
    endloop
  endfacet
  facet normal 1.000000 0.000000 -0.000000
    outer loop
      vertex 5.000000 -7.954544 3.017868
      vertex 5.000000 -12.500000 0.000000
      vertex 5.000000 -6.045456 3.017868
    endloop
  endfacet
  facet normal 1.000000 0.000000 -0.000000
    outer loop
      vertex 5.000000 -9.144841 4.510454
      vertex 5.000000 -12.500000 0.000000
      vertex 5.000000 -7.954544 3.017868
    endloop
  endfacet
  facet normal 1.000000 -0.000000 0.000000
    outer loop
      vertex 5.000000 5.279971 6.371678
      vertex 5.000000 -12.500000 10.000000
      vertex 5.000000 4.855159 4.510454
    endloop
  endfacet
  facet normal 1.000000 0.000000 0.000000
    outer loop
      vertex 5.000000 12.500000 10.000000
      vertex 5.000000 -12.500000 10.000000
      vertex 5.000000 5.279971 6.371678
    endloop
  endfacet
  facet normal 1.000000 0.000000 -0.000000
    outer loop
      vertex 5.000000 7.954544 3.017868
      vertex 5.000000 6.045456 3.017868
      vertex 5.000000 12.500000 0.000000
    endloop
  endfacet
  facet normal 1.000000 0.000000 0.000000
    outer loop
      vertex 5.000000 12.500000 10.000000
      vertex 5.000000 5.279971 6.371678
      vertex 5.000000 7.000000 7.200000
    endloop
  endfacet
  facet normal 1.000000 0.000000 0.000000
    outer loop
      vertex 5.000000 12.500000 10.000000
      vertex 5.000000 8.720029 6.371678
      vertex 5.000000 12.500000 0.000000
    endloop
  endfacet
  facet normal 1.000000 0.000000 0.000000
    outer loop
      vertex 5.000000 8.720029 6.371678
      vertex 5.000000 9.144841 4.510454
      vertex 5.000000 12.500000 0.000000
    endloop
  endfacet
  facet normal 1.000000 0.000000 -0.000000
    outer loop
      vertex 5.000000 9.144841 4.510454
      vertex 5.000000 7.954544 3.017868
      vertex 5.000000 12.500000 0.000000
    endloop
  endfacet
  facet normal 1.000000 -0.000000 -0.000000
    outer loop
      vertex 5.000000 4.855159 4.510454
      vertex 5.000000 -12.500000 10.000000
      vertex 5.000000 6.045456 3.017868
    endloop
  endfacet
  facet normal 1.000000 0.000000 0.000000
    outer loop
      vertex 5.000000 -5.279971 6.371678
      vertex 5.000000 -4.855159 4.510454
      vertex 5.000000 12.500000 0.000000
    endloop
  endfacet
  facet normal 0.000000 1.000000 0.000000
    outer loop
      vertex -5.000000 12.500000 0.000000
      vertex -5.000000 12.500000 10.000000
      vertex 5.000000 12.500000 0.000000
    endloop
  endfacet
  facet normal 0.000000 1.000000 0.000000
    outer loop
      vertex 5.000000 12.500000 0.000000
      vertex -5.000000 12.500000 10.000000
      vertex 5.000000 12.500000 10.000000
    endloop
  endfacet
  facet normal -1.000000 0.000000 0.000000
    outer loop
      vertex -5.000000 6.045456 3.017868
      vertex -5.000000 4.010099 0.000000
      vertex -5.000000 4.855159 4.510454
    endloop
  endfacet
  facet normal -1.000000 0.000000 -0.000000
    outer loop
      vertex -5.000000 8.720029 6.371678
      vertex -5.000000 4.010099 10.000000
      vertex -5.000000 12.500000 10.000000
    endloop
  endfacet
  facet normal -1.000000 0.000000 -0.000000
    outer loop
      vertex -5.000000 4.855159 4.510454
      vertex -5.000000 4.010099 10.000000
      vertex -5.000000 5.279971 6.371678
    endloop
  endfacet
  facet normal -1.000000 0.000000 -0.000000
    outer loop
      vertex -5.000000 4.010099 0.000000
      vertex -5.000000 4.010099 10.000000
      vertex -5.000000 4.855159 4.510454
    endloop
  endfacet
  facet normal -1.000000 0.000000 0.000000
    outer loop
      vertex -5.000000 9.144841 4.510454
      vertex -5.000000 12.500000 0.000000
      vertex -5.000000 7.954544 3.017868
    endloop
  endfacet
  facet normal -1.000000 -0.000000 0.000000
    outer loop
      vertex -5.000000 4.010099 0.000000
      vertex -5.000000 6.045456 3.017868
      vertex -5.000000 12.500000 0.000000
    endloop
  endfacet
  facet normal -1.000000 0.000000 0.000000
    outer loop
      vertex -5.000000 6.045456 3.017868
      vertex -5.000000 7.954544 3.017868
      vertex -5.000000 12.500000 0.000000
    endloop
  endfacet
  facet normal -1.000000 0.000000 0.000000
    outer loop
      vertex -5.000000 12.500000 0.000000
      vertex -5.000000 9.144841 4.510454
      vertex -5.000000 12.500000 10.000000
    endloop
  endfacet
  facet normal -1.000000 -0.000000 -0.000000
    outer loop
      vertex -5.000000 7.000000 7.200000
      vertex -5.000000 4.010099 10.000000
      vertex -5.000000 8.720029 6.371678
    endloop
  endfacet
  facet normal -1.000000 0.000000 -0.000000
    outer loop
      vertex -5.000000 9.144841 4.510454
      vertex -5.000000 8.720029 6.371678
      vertex -5.000000 12.500000 10.000000
    endloop
  endfacet
  facet normal -1.000000 0.000000 -0.000000
    outer loop
      vertex -5.000000 5.279971 6.371678
      vertex -5.000000 4.010099 10.000000
      vertex -5.000000 7.000000 7.200000
    endloop
  endfacet
  facet normal -0.120536 -0.992709 -0.000000
    outer loop
      vertex -3.546120 3.833567 0.000000
      vertex -3.546120 3.833567 10.000000
      vertex -5.000000 4.010099 10.000000
    endloop
  endfacet
  facet normal -0.120536 -0.992709 -0.000000
    outer loop
      vertex -5.000000 4.010099 0.000000
      vertex -3.546120 3.833567 0.000000
      vertex -5.000000 4.010099 10.000000
    endloop
  endfacet
  facet normal -0.568065 -0.822984 -0.000000
    outer loop
      vertex -1.931106 2.718803 0.000000
      vertex -1.931106 2.718803 10.000000
      vertex -3.546120 3.833567 10.000000
    endloop
  endfacet
  facet normal -0.568065 -0.822984 -0.000000
    outer loop
      vertex -3.546120 3.833567 0.000000
      vertex -1.931106 2.718803 0.000000
      vertex -3.546120 3.833567 10.000000
    endloop
  endfacet
  facet normal -0.885456 -0.464723 0.000000
    outer loop
      vertex -1.019139 0.981194 10.000000
      vertex -1.931106 2.718803 10.000000
      vertex -1.019139 0.981194 0.000000
    endloop
  endfacet
  facet normal -0.885456 -0.464723 0.000000
    outer loop
      vertex -1.019139 0.981194 0.000000
      vertex -1.931106 2.718803 10.000000
      vertex -1.931106 2.718803 0.000000
    endloop
  endfacet
  facet normal -1.000000 0.000000 0.000000
    outer loop
      vertex -1.019139 0.981194 10.000000
      vertex -1.019139 0.981194 0.000000
      vertex -1.019139 -0.981194 10.000000
    endloop
  endfacet
  facet normal -1.000000 0.000000 0.000000
    outer loop
      vertex -1.019139 -0.981194 10.000000
      vertex -1.019139 0.981194 0.000000
      vertex -1.019139 -0.981194 0.000000
    endloop
  endfacet
  facet normal -0.885456 0.464723 0.000000
    outer loop
      vertex -1.019139 -0.981194 10.000000
      vertex -1.019139 -0.981194 0.000000
      vertex -1.931106 -2.718803 10.000000
    endloop
  endfacet
  facet normal -0.885456 0.464723 0.000000
    outer loop
      vertex -1.931106 -2.718803 10.000000
      vertex -1.019139 -0.981194 0.000000
      vertex -1.931106 -2.718803 0.000000
    endloop
  endfacet
  facet normal -0.568065 0.822984 0.000000
    outer loop
      vertex -1.931106 -2.718803 10.000000
      vertex -1.931106 -2.718803 0.000000
      vertex -3.546120 -3.833567 10.000000
    endloop
  endfacet
  facet normal -0.568065 0.822984 0.000000
    outer loop
      vertex -3.546120 -3.833567 10.000000
      vertex -1.931106 -2.718803 0.000000
      vertex -3.546120 -3.833567 0.000000
    endloop
  endfacet
  facet normal 0.000000 0.974928 -0.222521
    outer loop
      vertex 5.000000 5.279971 6.371678
      vertex 5.000000 4.855159 4.510454
      vertex -5.000000 5.279971 6.371678
    endloop
  endfacet
  facet normal 0.000000 0.974928 -0.222521
    outer loop
      vertex -5.000000 5.279971 6.371678
      vertex 5.000000 4.855159 4.510454
      vertex -5.000000 4.855159 4.510454
    endloop
  endfacet
  facet normal -0.000000 0.781832 0.623490
    outer loop
      vertex 5.000000 6.045456 3.017868
      vertex -5.000000 6.045456 3.017868
      vertex 5.000000 4.855159 4.510454
    endloop
  endfacet
  facet normal -0.000000 0.781832 0.623490
    outer loop
      vertex 5.000000 4.855159 4.510454
      vertex -5.000000 6.045456 3.017868
      vertex -5.000000 4.855159 4.510454
    endloop
  endfacet
  facet normal -0.000000 0.000000 1.000000
    outer loop
      vertex 5.000000 6.045456 3.017868
      vertex 5.000000 7.954544 3.017868
      vertex -5.000000 7.954544 3.017868
    endloop
  endfacet
  facet normal -0.000000 0.000000 1.000000
    outer loop
      vertex -5.000000 6.045456 3.017868
      vertex 5.000000 6.045456 3.017868
      vertex -5.000000 7.954544 3.017868
    endloop
  endfacet
  facet normal -0.000000 -0.781832 0.623490
    outer loop
      vertex 5.000000 7.954544 3.017868
      vertex 5.000000 9.144841 4.510454
      vertex -5.000000 9.144841 4.510454
    endloop
  endfacet
  facet normal -0.000000 -0.781832 0.623490
    outer loop
      vertex -5.000000 7.954544 3.017868
      vertex 5.000000 7.954544 3.017868
      vertex -5.000000 9.144841 4.510454
    endloop
  endfacet
  facet normal 0.000000 -0.974928 -0.222521
    outer loop
      vertex -5.000000 9.144841 4.510454
      vertex 5.000000 9.144841 4.510454
      vertex 5.000000 8.720029 6.371678
    endloop
  endfacet
  facet normal 0.000000 -0.974928 -0.222521
    outer loop
      vertex -5.000000 8.720029 6.371678
      vertex -5.000000 9.144841 4.510454
      vertex 5.000000 8.720029 6.371678
    endloop
  endfacet
  facet normal 0.000000 -0.433884 -0.900969
    outer loop
      vertex 5.000000 8.720029 6.371678
      vertex 5.000000 7.000000 7.200000
      vertex -5.000000 8.720029 6.371678
    endloop
  endfacet
  facet normal 0.000000 -0.433884 -0.900969
    outer loop
      vertex -5.000000 8.720029 6.371678
      vertex 5.000000 7.000000 7.200000
      vertex -5.000000 7.000000 7.200000
    endloop
  endfacet
  facet normal 0.000000 0.433884 -0.900969
    outer loop
      vertex 5.000000 7.000000 7.200000
      vertex 5.000000 5.279971 6.371678
      vertex -5.000000 7.000000 7.200000
    endloop
  endfacet
  facet normal 0.000000 0.433884 -0.900969
    outer loop
      vertex -5.000000 7.000000 7.200000
      vertex 5.000000 5.279971 6.371678
      vertex -5.000000 5.279971 6.371678
    endloop
  endfacet
endsolid OpenSCAD_Model
